<svg xmlns="http://www.w3.org/2000/svg" viewBox="0 0 210.43 259.29"><defs><style>.cls-1{fill:#fff;}</style></defs><g id="Capa_2" data-name="Capa 2"><g id="Capa_1-2" data-name="Capa 1"><path class="cls-1" d="M5.16,166.5a2.3,2.3,0,0,1,1.41.38A1.28,1.28,0,0,1,7.06,168a1.86,1.86,0,0,1-.16.81,1.45,1.45,0,0,1-.46.55,2.11,2.11,0,0,1-.73.32,4,4,0,0,1-1,.11H4.09l-.36,2H2.52l.92-5.22Zm-.38,2.26a1.67,1.67,0,0,0,.77-.15.55.55,0,0,0,.28-.54.58.58,0,0,0-.06-.28.39.39,0,0,0-.18-.18.67.67,0,0,0-.26-.1l-.34,0h-.5l-.23,1.27Z"/><path class="cls-1" d="M15.23,171.72H13.84l-.88-2.1h-.5l-.36,2.1H10.91l.92-5.22h1.79a2.2,2.2,0,0,1,1.34.36,1.21,1.21,0,0,1,.49,1,1.54,1.54,0,0,1-.35,1,1.74,1.74,0,0,1-.94.55Zm-2.06-3a1.46,1.46,0,0,0,.76-.16.54.54,0,0,0,.28-.51.45.45,0,0,0-.23-.44,1.32,1.32,0,0,0-.61-.12h-.53l-.22,1.23Z"/><path class="cls-1" d="M22.7,166.36a3.14,3.14,0,0,1,1.06.17,2.1,2.1,0,0,1,.8.46,2.21,2.21,0,0,1,.5.73,2.67,2.67,0,0,1,.17.95,3.43,3.43,0,0,1-.23,1.25,3.19,3.19,0,0,1-.63,1,2.93,2.93,0,0,1-1,.68,3.12,3.12,0,0,1-1.24.25,3.2,3.2,0,0,1-1.07-.17,2.08,2.08,0,0,1-1.31-1.19,2.63,2.63,0,0,1-.17-.95,3.43,3.43,0,0,1,.23-1.25,3.21,3.21,0,0,1,.64-1,3.08,3.08,0,0,1,1-.68A3.16,3.16,0,0,1,22.7,166.36Zm-.48,4.39a1.54,1.54,0,0,0,.73-.17,1.7,1.7,0,0,0,.55-.44,1.94,1.94,0,0,0,.33-.64,2.24,2.24,0,0,0,.12-.73,1.44,1.44,0,0,0-.09-.51,1.27,1.27,0,0,0-.25-.42,1.15,1.15,0,0,0-.42-.28,1.64,1.64,0,0,0-1.29.07,1.77,1.77,0,0,0-.54.44,2.16,2.16,0,0,0-.35.63,2.3,2.3,0,0,0-.12.74A1.44,1.44,0,0,0,21,170a1,1,0,0,0,.26.41,1.22,1.22,0,0,0,.41.29A1.7,1.7,0,0,0,22.22,170.75Z"/><path class="cls-1" d="M31.21,167.55,31,168.66H33l-.18,1H30.84l-.36,2.05H29.27l.92-5.22h3.28l-.18,1.05Z"/><path class="cls-1" d="M37.1,171.72,38,166.5h3.35l-.19,1.05H39l-.18,1H40.9l-.18,1H38.66l-.2,1.12h2.38l-.18,1.05Z"/><path class="cls-1" d="M48.47,167.77a.89.89,0,0,0-.36-.31,1.18,1.18,0,0,0-.5-.1l-.27,0a1.12,1.12,0,0,0-.25.11.72.72,0,0,0-.19.2.52.52,0,0,0-.08.29.43.43,0,0,0,.17.35,2.48,2.48,0,0,0,.49.24,4.16,4.16,0,0,1,.6.26,2,2,0,0,1,.45.33,1.07,1.07,0,0,1,.28.42,1.24,1.24,0,0,1,.1.52,1.57,1.57,0,0,1-.2.81,1.73,1.73,0,0,1-.5.54,2.33,2.33,0,0,1-.7.31,3.29,3.29,0,0,1-.76.09,2.78,2.78,0,0,1-1.58-.45,2.11,2.11,0,0,1-.37-.36l.91-.74a1.09,1.09,0,0,0,.45.39,1.4,1.4,0,0,0,.62.14,1.63,1.63,0,0,0,.31,0,.81.81,0,0,0,.27-.11.61.61,0,0,0,.19-.2.65.65,0,0,0,.07-.29.51.51,0,0,0-.22-.43,2.49,2.49,0,0,0-.59-.29,2.39,2.39,0,0,1-.49-.2,1.33,1.33,0,0,1-.66-.66,1.45,1.45,0,0,1-.09-.54,1.58,1.58,0,0,1,.16-.72,1.67,1.67,0,0,1,.45-.54,2.19,2.19,0,0,1,.68-.35,2.71,2.71,0,0,1,.82-.12,2.45,2.45,0,0,1,.46,0,2.42,2.42,0,0,1,.46.13,3,3,0,0,1,.4.21,1.42,1.42,0,0,1,.31.29Z"/><path class="cls-1" d="M56.39,166.36a3.14,3.14,0,0,1,1.06.17,2.18,2.18,0,0,1,.8.46,2,2,0,0,1,.49.73,2.47,2.47,0,0,1,.18.95,3.43,3.43,0,0,1-.23,1.25,3.19,3.19,0,0,1-.63,1,2.93,2.93,0,0,1-1,.68,3.16,3.16,0,0,1-1.24.25,3.2,3.2,0,0,1-1.07-.17,2,2,0,0,1-.8-.46,2.09,2.09,0,0,1-.51-.73,2.63,2.63,0,0,1-.17-.95,3.43,3.43,0,0,1,.23-1.25,3,3,0,0,1,.64-1,3.08,3.08,0,0,1,1-.68A3.16,3.16,0,0,1,56.39,166.36Zm-.48,4.39a1.57,1.57,0,0,0,.73-.17,1.66,1.66,0,0,0,.54-.44,2,2,0,0,0,.34-.64,2.24,2.24,0,0,0,.12-.73,1.44,1.44,0,0,0-.09-.51,1.27,1.27,0,0,0-.25-.42,1.15,1.15,0,0,0-.42-.28,1.64,1.64,0,0,0-1.29.07,1.77,1.77,0,0,0-.54.44,2.16,2.16,0,0,0-.35.63,2.3,2.3,0,0,0-.12.74,1.44,1.44,0,0,0,.09.51,1.13,1.13,0,0,0,.25.41,1.37,1.37,0,0,0,.42.29A1.7,1.7,0,0,0,55.91,170.75Z"/><path class="cls-1" d="M67.27,171.72H65.89l-.88-2.1h-.5l-.36,2.1H63l.92-5.22h1.78a2.21,2.21,0,0,1,1.35.36,1.23,1.23,0,0,1,.48,1,1.53,1.53,0,0,1-.34,1,1.78,1.78,0,0,1-.94.55Zm-2.06-3a1.5,1.5,0,0,0,.77-.16.56.56,0,0,0,.27-.51.44.44,0,0,0-.22-.44,1.37,1.37,0,0,0-.62-.12h-.52l-.22,1.23Z"/><path class="cls-1" d="M75,171.72l-.17-1h-2l-.63,1h-1.4l3.33-5.22h1.2l1,5.22Zm-.57-3.88-1.09,1.85h1.36Z"/><path class="cls-1" d="M167.89,238.65h-.84l3.27-7.56h.75l3.24,7.56h-.85l-.83-2h-3.91ZM169,236h3.33l-1.67-4Z"/><path class="cls-1" d="M181.73,238.13a.64.64,0,0,1-.16.41.6.6,0,0,1-.84,0,.59.59,0,0,1-.16-.41.59.59,0,0,1,1-.4A.61.61,0,0,1,181.73,238.13Z"/><path class="cls-1" d="M195.25,237.42a3.37,3.37,0,0,1-.47.54,2.69,2.69,0,0,1-.63.46,3.71,3.71,0,0,1-.79.31,4,4,0,0,1-.94.11,4.08,4.08,0,0,1-1.58-.3,3.51,3.51,0,0,1-1.25-.83,3.67,3.67,0,0,1-.82-1.25,4.16,4.16,0,0,1-.29-1.59,4.09,4.09,0,0,1,.29-1.59,3.79,3.79,0,0,1,.83-1.26,3.85,3.85,0,0,1,1.25-.83,4,4,0,0,1,1.57-.3,3.66,3.66,0,0,1,.81.09,4.5,4.5,0,0,1,.76.24,4,4,0,0,1,.64.38,2.51,2.51,0,0,1,.48.5l-.64.47a2.07,2.07,0,0,0-.32-.36,2.21,2.21,0,0,0-.46-.32,2.7,2.7,0,0,0-.58-.23,3,3,0,0,0-.68-.08,3.27,3.27,0,0,0-1.32.26,3,3,0,0,0-1,.72,3.07,3.07,0,0,0-.62,1.05,3.79,3.79,0,0,0-.21,1.26,3.46,3.46,0,0,0,.22,1.25,3.07,3.07,0,0,0,.62,1,3,3,0,0,0,1,.72,3.07,3.07,0,0,0,1.31.27,3,3,0,0,0,1.24-.27,2.3,2.3,0,0,0,1-.86Z"/><path class="cls-1" d="M202.87,238.13a.59.59,0,0,1-.16.41.57.57,0,0,1-.42.17.53.53,0,0,1-.41-.17.59.59,0,0,1-.16-.41.57.57,0,0,1,.16-.4.53.53,0,0,1,.41-.17.56.56,0,0,1,.58.57Z"/><path class="cls-1" d="M17.86,184.07a68.47,68.47,0,0,0-11.68,2.6c-2.45.89-3.85,1.41-4.19,1.56s-.67.39-.67.59a.5.5,0,0,0,.15.37.84.84,0,0,1-.6-.07,2.1,2.1,0,0,1-.44-.45,2.62,2.62,0,0,1-.37-1,1.39,1.39,0,0,1,.07-1A3.26,3.26,0,0,1,.65,186a1.84,1.84,0,0,1,.82-.44,75.66,75.66,0,0,1,8.08-2.68q4-1,9.68-2.07a102.73,102.73,0,0,1,13.1-1.41,60.27,60.27,0,0,1,12.24.41A29.23,29.23,0,0,1,52.39,182a9.81,9.81,0,0,1,4.08,3.19,5.82,5.82,0,0,1,1.08,3.42,5.55,5.55,0,0,1-.93,2.85,11,11,0,0,1-2.19,2.41,20.62,20.62,0,0,1-3,2.08c-1.11.64-2.22,1.26-3.3,1.85a18.79,18.79,0,0,1-2.3,1c-1.09.4-2.38.82-3.86,1.26l.59.07a49.16,49.16,0,0,1,8.9,2.16,23.86,23.86,0,0,1,3.34,1.44,16.83,16.83,0,0,1,3,2A10.86,10.86,0,0,1,60,208.18a6.91,6.91,0,0,1,1,3.12,6.38,6.38,0,0,1-1.44,4.52A17.81,17.81,0,0,1,54.8,220a41.62,41.62,0,0,1-7.38,3.6,69.38,69.38,0,0,1-9.27,2.78,102.36,102.36,0,0,1-10.5,1.82,82.4,82.4,0,0,1-11,.59,16.05,16.05,0,0,1-3.57-.33,8,8,0,0,1-2.22-.82,3.24,3.24,0,0,1-1.15-1,1.84,1.84,0,0,1-.33-1,1.27,1.27,0,0,1,.18-.67,3.14,3.14,0,0,1,.41-.52,3.82,3.82,0,0,1,.59-.37,1.24,1.24,0,0,0,.08.37.7.7,0,0,0,.59.52,27.87,27.87,0,0,0,4.08.29q0-6.67.19-12T16,203.8a10,10,0,0,1-1.41-.18,1.42,1.42,0,0,1-.6-.26c-.14-.1-.19-.2-.14-.3a1.28,1.28,0,0,1,.37-.67,3.8,3.8,0,0,1,.7-.66,6.79,6.79,0,0,1,1.3-.75q.52-7,1-11C17.61,187.32,17.81,185.36,17.86,184.07ZM19,225.31c2.43,0,5.1-.09,8-.29a53.67,53.67,0,0,0,8.3-1.19c2.67-.59,5.3-1.26,7.87-2a43.49,43.49,0,0,0,7-2.63,18.37,18.37,0,0,0,5.12-3.57,8.37,8.37,0,0,0,2.37-4.93A4.08,4.08,0,0,0,56,207a15.59,15.59,0,0,0-5.15-2.67,43.5,43.5,0,0,0-7.53-1.67,85.4,85.4,0,0,0-8.72-.74q-3.25.74-6.56,1.22c-2.2.33-4.24.53-6.12.63-.5,0-.95.08-1.37.08H19.27q-.37,4.67-.52,10.05C18.65,217.52,18.73,221.31,19,225.31Zm16.47-26c1.63-.44,3.59-1,5.86-1.81s4.43-1.61,6.46-2.53a24.94,24.94,0,0,0,5.08-3c1.36-1.07,2-2.14,1.81-3.23a4.24,4.24,0,0,0-2-2.75A15.62,15.62,0,0,0,47.87,184a42.19,42.19,0,0,0-6.72-1.23,49.34,49.34,0,0,0-7.93-.18c-4,.2-7.62.49-10.83.89-.35,1.28-.79,3.32-1.34,6.12s-1,6.24-1.48,10.35a9.83,9.83,0,0,1,1.18-.23,12.63,12.63,0,0,1,1.27-.07,56.33,56.33,0,0,1,7.08-.45q3.52,0,6.42.15Z"/><path class="cls-1" d="M85.29,217a26.13,26.13,0,0,1-3.49,5A15.93,15.93,0,0,1,79,224.46a5.27,5.27,0,0,1-3.08,1.08,4,4,0,0,1-2.67-.67,7.67,7.67,0,0,1-1.56-1.56,5.61,5.61,0,0,1-.89-2.22,19.48,19.48,0,0,1-1.63,2.44,11.7,11.7,0,0,1-1.7,1.67,2.74,2.74,0,0,1-1.93.71,4.11,4.11,0,0,1-1.34-.3,3.76,3.76,0,0,1-1.55-1.18,6.27,6.27,0,0,1-1.15-2.53,11.08,11.08,0,0,1,0-4.23,13.61,13.61,0,0,1,1.26-4.52A12.32,12.32,0,0,1,64.89,210a8,8,0,0,1,2.41-1.78,5.31,5.31,0,0,1,2.12-.56,4.46,4.46,0,0,1,2.44.67A3.32,3.32,0,0,1,73,209.66a3,3,0,0,1,.3,1.41c0,.45,0,.72,0,.82a3.07,3.07,0,0,1-.48,1,1.15,1.15,0,0,1-.48.37.59.59,0,0,1-.45,0,4.07,4.07,0,0,0-.44-.18,3.26,3.26,0,0,0-.08-1.56,2.4,2.4,0,0,0-.59-1.08,2.08,2.08,0,0,0-1.41-.55,2.81,2.81,0,0,0-1.59.52,5.64,5.64,0,0,0-1.45,1.44A11.58,11.58,0,0,0,65.11,214a14,14,0,0,0-.81,2.44,13.79,13.79,0,0,0-.37,2.53,8.68,8.68,0,0,0,.11,2.22,3.71,3.71,0,0,0,.63,1.56,1.36,1.36,0,0,0,1.11.59,2.57,2.57,0,0,0,2-1.18,13.77,13.77,0,0,0,1.63-2.75,23.52,23.52,0,0,0,1.15-3.11c.29-1,.49-1.79.59-2.23,0-.2.22-.31.52-.33a2.75,2.75,0,0,1,1.89.59.82.82,0,0,1,.34.78,15.26,15.26,0,0,0-.78,4,5.85,5.85,0,0,0,.55,2.74A2.44,2.44,0,0,0,76.09,223q1.71,0,3.9-2a31.66,31.66,0,0,0,5.15-7.46c.35-.59.64-.54.89.15s0,1.78-.74,3.26Z"/><path class="cls-1" d="M95.67,225.24a5.25,5.25,0,0,1-3.26-1.07,6.37,6.37,0,0,1-1.74-2.23,8.44,8.44,0,0,1-.71-2.41,15.46,15.46,0,0,1-.15-1.71,8.47,8.47,0,0,1,.11-2.15c.13-.59.24-1.1.34-1.52a9.78,9.78,0,0,1,.26-1c.07-.23,0-.39-.11-.49a.72.72,0,0,0-.49-.18.68.68,0,0,0-.33.18,4.38,4.38,0,0,1-.37.34.92.92,0,0,1-.59.18,4.62,4.62,0,0,1-1.34-.18.51.51,0,0,0-.74.41,5.21,5.21,0,0,1-.48,1.26,3,3,0,0,1-.48.81.33.33,0,0,1-.34.23,1.23,1.23,0,0,1-.52-.12.81.81,0,0,1-.41-.37.69.69,0,0,1,0-.63,2.47,2.47,0,0,1,.15-.48,9.66,9.66,0,0,0,.3-1q.15-.6.3-1.26a5.78,5.78,0,0,0,.14-1.26,10.6,10.6,0,0,1,.15-1.78,9.08,9.08,0,0,1,.41-1.6,3.46,3.46,0,0,1,.67-1.15,1,1,0,0,1,.85-.37,1,1,0,0,1,.78.34,2.6,2.6,0,0,1,.52.7,3.28,3.28,0,0,1,.26.74,3.15,3.15,0,0,1,.07.6,1.76,1.76,0,0,1-.33,1c-.22.32-.24.58,0,.78a.53.53,0,0,0,.56.22,2.29,2.29,0,0,0,.48-.15l.52-.3a3.89,3.89,0,0,1,.85-.37,3.61,3.61,0,0,1,1.08-.15,2.69,2.69,0,0,1,1.26.37,1.21,1.21,0,0,1,.52.67,4.17,4.17,0,0,1,.19.89,6.43,6.43,0,0,1,0,1.12,3.19,3.19,0,0,1-.26,1c-.13.25-.25.52-.37.82a6.42,6.42,0,0,0-.34,1.11,9.12,9.12,0,0,0-.14,1.86,12,12,0,0,0,.48,4.08,2.56,2.56,0,0,0,2.78,1.7,4.25,4.25,0,0,0,2.63-1,13.74,13.74,0,0,0,2.41-2.41,27.85,27.85,0,0,0,2-3c.62-1,1.15-1.95,1.6-2.74.15-.3.32-.42.52-.37s.33.22.41.52a3.43,3.43,0,0,1,0,1.3,8,8,0,0,1-.67,2q-.22.38-1,1.74a16.48,16.48,0,0,1-2,2.82,14,14,0,0,1-2.86,2.56,5.4,5.4,0,0,1-3.56,1Z"/><path class="cls-1" d="M115.55,225.24a5.25,5.25,0,0,1-3.26-1.07,6.37,6.37,0,0,1-1.74-2.23,8.44,8.44,0,0,1-.71-2.41,15.46,15.46,0,0,1-.15-1.71,8.47,8.47,0,0,1,.11-2.15c.13-.59.24-1.1.34-1.52a9.78,9.78,0,0,1,.26-1,.4.4,0,0,0-.11-.49.72.72,0,0,0-.49-.18.68.68,0,0,0-.33.18,4.38,4.38,0,0,1-.37.34.92.92,0,0,1-.59.18,4.62,4.62,0,0,1-1.34-.18.51.51,0,0,0-.74.41,5.21,5.21,0,0,1-.48,1.26,3.38,3.38,0,0,1-.48.81.33.33,0,0,1-.34.23,1.23,1.23,0,0,1-.52-.12.81.81,0,0,1-.41-.37.69.69,0,0,1,0-.63,2.47,2.47,0,0,1,.15-.48,9.66,9.66,0,0,0,.3-1q.15-.6.3-1.26a6.47,6.47,0,0,0,.14-1.26,10.6,10.6,0,0,1,.15-1.78,9.08,9.08,0,0,1,.41-1.6,3.46,3.46,0,0,1,.67-1.15.94.94,0,0,1,.85-.37,1,1,0,0,1,.78.34,2.6,2.6,0,0,1,.52.7,3.28,3.28,0,0,1,.26.74,3.15,3.15,0,0,1,.07.6,1.76,1.76,0,0,1-.33,1c-.22.32-.24.58,0,.78a.53.53,0,0,0,.56.22,2.29,2.29,0,0,0,.48-.15l.52-.3a3.89,3.89,0,0,1,.85-.37,3.61,3.61,0,0,1,1.08-.15,2.72,2.72,0,0,1,1.26.37,1.21,1.21,0,0,1,.52.67,3.61,3.61,0,0,1,.18.89,5.47,5.47,0,0,1,0,1.12,3.19,3.19,0,0,1-.26,1c-.13.25-.25.52-.37.82a6.42,6.42,0,0,0-.34,1.11,9,9,0,0,0-.15,1.86,12,12,0,0,0,.49,4.08c.37,1.14,1.29,1.7,2.78,1.7a4.25,4.25,0,0,0,2.63-1,13.74,13.74,0,0,0,2.41-2.41,27.85,27.85,0,0,0,2-3c.62-1,1.15-1.95,1.6-2.74.15-.3.32-.42.52-.37s.33.22.4.52a3.2,3.2,0,0,1,0,1.3,8,8,0,0,1-.67,2q-.23.38-1,1.74a16.48,16.48,0,0,1-2,2.82,14,14,0,0,1-2.86,2.56,5.4,5.4,0,0,1-3.56,1Z"/><path class="cls-1" d="M147,217a23.73,23.73,0,0,1-1.29,2.15,24.47,24.47,0,0,1-2.19,2.82,16.3,16.3,0,0,1-2.78,2.48,5.29,5.29,0,0,1-3.08,1.08,4,4,0,0,1-2.67-.67,7.2,7.2,0,0,1-1.56-1.56,5.47,5.47,0,0,1-.89-2.22,21.94,21.94,0,0,1-1.63,2.44,12.31,12.31,0,0,1-1.71,1.67,2.72,2.72,0,0,1-1.93.71,4.06,4.06,0,0,1-1.33-.3,3.72,3.72,0,0,1-1.56-1.18,6.27,6.27,0,0,1-1.15-2.53,11.5,11.5,0,0,1,0-4.23,13.61,13.61,0,0,1,1.26-4.52A12.58,12.58,0,0,1,126.6,210a8.08,8.08,0,0,1,2.42-1.78,5.27,5.27,0,0,1,2.11-.56,4.5,4.5,0,0,1,2.45.67,3.48,3.48,0,0,1,1.15,1.33,3,3,0,0,1,.29,1.41c0,.45,0,.72,0,.82a2.87,2.87,0,0,1-.49,1,1.15,1.15,0,0,1-.48.37.57.57,0,0,1-.44,0,4.22,4.22,0,0,0-.45-.18,3.27,3.27,0,0,0-.07-1.56,2.42,2.42,0,0,0-.6-1.08,2,2,0,0,0-1.4-.55,2.82,2.82,0,0,0-1.6.52,5.64,5.64,0,0,0-1.45,1.44,11.56,11.56,0,0,0-1.18,2.12,14,14,0,0,0-.82,2.44,14.71,14.71,0,0,0-.37,2.53,9.16,9.16,0,0,0,.11,2.22,3.84,3.84,0,0,0,.63,1.56,1.36,1.36,0,0,0,1.11.59,2.55,2.55,0,0,0,2-1.18,13.31,13.31,0,0,0,1.63-2.75,22.19,22.19,0,0,0,1.15-3.11c.3-1,.5-1.79.6-2.23,0-.2.22-.31.52-.33a2.56,2.56,0,0,1,1,.11,2.75,2.75,0,0,1,.93.48.79.79,0,0,1,.33.78,16.15,16.15,0,0,0-.78,4,5.85,5.85,0,0,0,.56,2.74,2.44,2.44,0,0,0,2.45,1.23c1.13,0,2.43-.68,3.89-2a31.34,31.34,0,0,0,5.16-7.46c.34-.59.64-.54.89.15s0,1.78-.75,3.26Z"/><path class="cls-1" d="M154.35,222.35a11.77,11.77,0,0,1-1.64,2.3,9,9,0,0,1-1.85,1.41,3.08,3.08,0,0,1-2.3.29,4.71,4.71,0,0,1-2.45-1.33,4.83,4.83,0,0,1-1.18-2.34,8.73,8.73,0,0,1-.08-3,16.87,16.87,0,0,1,.82-3.37,18.74,18.74,0,0,1,1.26-3.08,13.78,13.78,0,0,1,1.63-2.53,6.79,6.79,0,0,1,2-1.66,3.46,3.46,0,0,1,2.33-.38,4.43,4.43,0,0,1,2.75,1.34,6.13,6.13,0,0,1,.74,1.11l.89-1.63a1.18,1.18,0,0,1,.67-.52,1.59,1.59,0,0,1,.89,0,1.3,1.3,0,0,1,.7.45.69.69,0,0,1,0,.78c0,.1-.3.86-.74,2.3s-.94,3.21-1.49,5.34a17.24,17.24,0,0,0-.4,3.89c0,1.66,0,3.53,0,5.6a5.52,5.52,0,0,1,2.9-1.48c.09,0,.19,0,.29.15a1.28,1.28,0,0,1,.19.55c0,.23,0,.44,0,.64s-.07.29-.22.29a16,16,0,0,0-3.11,2.52c.1,2.38.19,4.76.29,7.16s.1,4.59,0,6.57a30.53,30.53,0,0,1-.59,4.74,24.33,24.33,0,0,1-1.56,5.05,13.56,13.56,0,0,1-2.7,4.08,5.74,5.74,0,0,1-4.05,1.78,3.3,3.3,0,0,1-2.93-1.86c-.81-1.28-1.1-3.29-.85-6a28.9,28.9,0,0,1,1.33-6.27,49.66,49.66,0,0,1,2.45-6,46.62,46.62,0,0,1,3-5.34,35.37,35.37,0,0,1,3.27-4.23c-.1-2.27-.18-4-.23-5.19C154.45,223.61,154.4,222.94,154.35,222.35Zm.44,10.23a35.06,35.06,0,0,0-3.11,4.86,53.79,53.79,0,0,0-2.45,5.2,38.62,38.62,0,0,0-1.63,4.82,15,15,0,0,0-.6,3.67c0,.34,0,.84-.07,1.48a13,13,0,0,0,0,2,5.78,5.78,0,0,0,.41,1.82,1.46,1.46,0,0,0,1.15,1,2.32,2.32,0,0,0,2.15-.82,9.16,9.16,0,0,0,1.82-2.81,22.76,22.76,0,0,0,1.29-4.12,30.19,30.19,0,0,0,.67-4.79q.22-3.18.3-6.3T154.79,232.58Zm.67-18a.72.72,0,0,1-.37.15c-.25.15-.37.1-.37-.15a3.46,3.46,0,0,1-.11-.82c0-.39-.08-.8-.15-1.22a3.66,3.66,0,0,0-.41-1.15,1.35,1.35,0,0,0-.89-.67,2,2,0,0,0-1.63.52A7.36,7.36,0,0,0,150,213a15.14,15.14,0,0,0-1.23,2.41,10.47,10.47,0,0,0-.66,2.26c-.15.7-.28,1.43-.38,2.19a16.69,16.69,0,0,0-.14,2.15,4.07,4.07,0,0,0,.29,1.67,1.05,1.05,0,0,0,1,.67,3,3,0,0,0,2.52-1.48,19.77,19.77,0,0,0,2.08-3.41A39.14,39.14,0,0,0,155.46,214.56Z"/><path class="cls-1" d="M184.54,217a26.13,26.13,0,0,1-3.49,5,16.3,16.3,0,0,1-2.78,2.48,5.29,5.29,0,0,1-3.08,1.08,4,4,0,0,1-2.67-.67,7.67,7.67,0,0,1-1.56-1.56,5.61,5.61,0,0,1-.89-2.22,20.64,20.64,0,0,1-1.63,2.44,11.78,11.78,0,0,1-1.71,1.67,2.71,2.71,0,0,1-1.93.71,4.06,4.06,0,0,1-1.33-.3,3.85,3.85,0,0,1-1.56-1.18,6.41,6.41,0,0,1-1.15-2.53,11.32,11.32,0,0,1,0-4.23,13.15,13.15,0,0,1,1.26-4.52,12.32,12.32,0,0,1,2.15-3.15,7.92,7.92,0,0,1,2.41-1.78,5.27,5.27,0,0,1,2.11-.56,4.47,4.47,0,0,1,2.45.67,3.4,3.4,0,0,1,1.15,1.33,3.15,3.15,0,0,1,.3,1.41c0,.45,0,.72,0,.82a3.07,3.07,0,0,1-.48,1,1.29,1.29,0,0,1-.48.37.59.59,0,0,1-.45,0l-.44-.18a3.39,3.39,0,0,0-.08-1.56,2.5,2.5,0,0,0-.59-1.08,2.08,2.08,0,0,0-1.41-.55,2.82,2.82,0,0,0-1.6.52,5.46,5.46,0,0,0-1.44,1.44,11.58,11.58,0,0,0-1.19,2.12,14,14,0,0,0-.82,2.44,15.76,15.76,0,0,0-.37,2.53,9.16,9.16,0,0,0,.11,2.22,3.84,3.84,0,0,0,.64,1.56,1.33,1.33,0,0,0,1.11.59,2.55,2.55,0,0,0,2-1.18,13.34,13.34,0,0,0,1.64-2.75,25,25,0,0,0,1.15-3.11c.29-1,.49-1.79.59-2.23,0-.2.22-.31.52-.33a2.54,2.54,0,0,1,1,.11,2.57,2.57,0,0,1,.93.48.79.79,0,0,1,.33.78,16.15,16.15,0,0,0-.78,4,5.85,5.85,0,0,0,.56,2.74,2.44,2.44,0,0,0,2.45,1.23c1.14,0,2.43-.68,3.89-2a31.34,31.34,0,0,0,5.16-7.46c.34-.59.64-.54.89.15s0,1.78-.74,3.26Zm-13.87-14.47.44-1,.82-1.89c.29-.69.58-1.34.85-1.93a10.22,10.22,0,0,1,.56-1.11c.39-.64.71-1,1-1s.59.23,1,.78a1.53,1.53,0,0,1,.37,1.55,3.9,3.9,0,0,1-.37.6l-.82,1.63c-.25.44-.49.9-.74,1.37a10.91,10.91,0,0,0-.59,1.3c-.7,1.48-1.36,2-2,1.48a1.44,1.44,0,0,1-.51-1A1.86,1.86,0,0,1,170.67,202.54Z"/><path class="cls-1" d="M209.68,217.08c-.15.25-.48.83-1,1.74a18.7,18.7,0,0,1-2,2.86,13.51,13.51,0,0,1-3,2.6,6.54,6.54,0,0,1-3.82,1,5.81,5.81,0,0,1-3-.77,4.78,4.78,0,0,1-1.63-1.75,5.94,5.94,0,0,1-.67-2.26c-.07-.82-.11-1.57-.11-2.26v-1.78c0-.5-.1-.77-.3-.82s-.37.4-.66,1.34-.7,2-1.19,3.11a15.81,15.81,0,0,1-1.78,3.12,2.79,2.79,0,0,1-2.45,1.33,1.77,1.77,0,0,1-1.56-.92,5.55,5.55,0,0,1-.55-2,12,12,0,0,1,0-2.53c.09-.89.17-1.7.22-2.44a8.84,8.84,0,0,0,.07-1.93c-.05-.5-.2-.74-.44-.74s-.24.18-.41.55-.36.76-.56,1.15a.63.63,0,0,1-.63.3.61.61,0,0,1-.44-.52,3.2,3.2,0,0,1,0-1.3,6.86,6.86,0,0,1,.82-2,2.32,2.32,0,0,1,.74-.81,1.71,1.71,0,0,1,1-.3,1.74,1.74,0,0,1,1,.37,2.79,2.79,0,0,1,.89,1.33,6.76,6.76,0,0,1,.38,2.67c-.05,1-.13,1.93-.23,2.82s-.16,1.66-.18,2.3.16,1,.55,1.12.7-.41,1.19-1.38,1-2.07,1.56-3.33,1-2.49,1.48-3.68.77-2,1-2.37c.34-.84.85-1.24,1.52-1.19a2.77,2.77,0,0,1,1.89,1.12q.3.28.18,1.26c-.07.64-.18,1.41-.33,2.3s-.28,1.81-.41,2.78a10.23,10.23,0,0,0,0,2.71,4.69,4.69,0,0,0,.86,2.15,2.69,2.69,0,0,0,2.15,1,4.8,4.8,0,0,0,3.19-.85,12.89,12.89,0,0,0,2.7-2.49,20.15,20.15,0,0,0,2.15-3.15c.62-1.11,1.15-2.06,1.6-2.85.15-.3.32-.42.52-.38s.33.24.41.56a3.64,3.64,0,0,1,0,1.34A8,8,0,0,1,209.68,217.08Z"/><path class="cls-1" d="M82.91,165.24a14.73,14.73,0,0,1,.52-5.94,12.56,12.56,0,0,1,2.36-4.36,10.77,10.77,0,0,1,3.53-2.72,11.3,11.3,0,0,1,4.1-1.08,7.3,7.3,0,0,1,3.66.61,8,8,0,0,1,2.67,2,9.36,9.36,0,0,1,1.7,2.83,10.22,10.22,0,0,1,.67,3.09,15.85,15.85,0,0,1-.8,6.37,20.84,20.84,0,0,1-2.27,4.61,19.35,19.35,0,0,1-3.44,3.7,3.5,3.5,0,0,1-.61.31.72.72,0,0,1-.92-.36.7.7,0,0,1,0-.76.6.6,0,0,1,.29-.28,23.1,23.1,0,0,0,3.12-3.35,19.41,19.41,0,0,0,2.06-3.79,11.09,11.09,0,0,0,.81-4.95,20,20,0,0,0-.38-2.32,8.67,8.67,0,0,0-1-2.61,5.92,5.92,0,0,0-2.07-2.06,5.76,5.76,0,0,0-3.5-.69,7.29,7.29,0,0,0-4,1.24,7.93,7.93,0,0,0-2.5,2.91,13.23,13.23,0,0,0-1.27,4,26.81,26.81,0,0,0-.32,4.71c0,1.63.11,3.26.26,4.88s.34,3.14.56,4.56a21.44,21.44,0,0,1,.19,3.07c0,1.08-.05,2.17-.13,3.26a28.63,28.63,0,0,1-.44,3.16,26,26,0,0,1-.69,2.77q3.45.94,6.32,1.92a39.49,39.49,0,0,0,4.55,1.32q3.31.78,6.51,1.23c2.13.31,3.79.5,5,.55a2.38,2.38,0,0,0,.37-.06.62.62,0,0,1,.32,0c.09,0,.13.07.14.17a1.37,1.37,0,0,1-.14.56l-.45.55a2.33,2.33,0,0,1-.57.37,1.38,1.38,0,0,1-.85.08,61.06,61.06,0,0,1-6.35-.77c-2.13-.37-4.17-.78-6.1-1.24s-3.72-.91-5.38-1.37-3.07-.87-4.25-1.22a15.09,15.09,0,0,1-1.83,2.56,14.74,14.74,0,0,1-2.82,2.46,18.5,18.5,0,0,1-3.8,1.92,16.25,16.25,0,0,1-4.82.93,11.35,11.35,0,0,1-4.34-.49A7.11,7.11,0,0,1,63.87,196a5.2,5.2,0,0,1-1.29-1.88,6.94,6.94,0,0,1-.4-1.53,4.89,4.89,0,0,1,.27-1.9,5.55,5.55,0,0,1,1.3-2.1,8.39,8.39,0,0,1,2.63-1.77,12.64,12.64,0,0,1,4.34-.95,28.41,28.41,0,0,1,5.79.35c2,.31,4.11.73,6.2,1.26a19.58,19.58,0,0,0,.89-4.38,45.75,45.75,0,0,0,.2-5.37c0-1.93-.14-3.94-.32-6s-.36-4.23-.57-6.38Zm-1.22,24.24c-.83-.21-1.61-.44-2.36-.67s-1.52-.41-2.34-.57a20.88,20.88,0,0,0-2.74-.32,32,32,0,0,0-3.59.06,11.09,11.09,0,0,0-3.59.72,6,6,0,0,0-1.95,1.23,2.92,2.92,0,0,0-.8,1.35,3.14,3.14,0,0,0-.13.93c0,.22.06.55.12,1a2.71,2.71,0,0,0,.74,1.4,4.79,4.79,0,0,0,2,1.18,9.38,9.38,0,0,0,3.72.32,14,14,0,0,0,3.78-.74,12.84,12.84,0,0,0,3.07-1.56A14.92,14.92,0,0,0,80,191.74,11.83,11.83,0,0,0,81.69,189.48Z"/><path class="cls-1" d="M116.81,184.52a3.59,3.59,0,0,0,1.89-.56,7.23,7.23,0,0,0,1.33-1.08,5.73,5.73,0,0,0,1-1.49l.48-1c.21-.45.43-.52.65-.22a2.52,2.52,0,0,1,.13,1.74,6.79,6.79,0,0,1-1.37,2.35,7,7,0,0,1-5.9,2.21l-.25,0a10.64,10.64,0,0,1-1.76,3.95,4.52,4.52,0,0,1-3.68,1.84,3.06,3.06,0,0,1-2-.54,4.64,4.64,0,0,1-1.32-1.47,7.78,7.78,0,0,1-.75-1.87,5.82,5.82,0,0,1-.2-1.77,15.73,15.73,0,0,1,.65-4.64,10.91,10.91,0,0,1,1.06-2.27,1.85,1.85,0,0,1,.52-.55,4.77,4.77,0,0,1,.61-.32,3.07,3.07,0,0,1,.7-1.69,3.16,3.16,0,0,1,1.91-1,2.43,2.43,0,0,1,1.39.19,3.91,3.91,0,0,1,1.47,1.13,6.67,6.67,0,0,1,1.2,2.21,10.84,10.84,0,0,1,.48,3.49q0,.32,0,.57c0,.17,0,.36,0,.58A5.38,5.38,0,0,0,116.81,184.52Zm-9.55,2c0,.33.08.72.14,1.16a5.41,5.41,0,0,0,.34,1.27,2.38,2.38,0,0,0,.73,1,2,2,0,0,0,1.25.36,1.88,1.88,0,0,0,1.11-.39,3.78,3.78,0,0,0,.92-1.05,9.6,9.6,0,0,0,.69-1.4,6.75,6.75,0,0,0,.43-1.53,10.7,10.7,0,0,1-1.72-1,4.71,4.71,0,0,1-1.22-1.22,9.51,9.51,0,0,1-1.27-1.92,2.48,2.48,0,0,0-.49.81,12.86,12.86,0,0,0-.49,1.29,11,11,0,0,0-.34,1.43A4.86,4.86,0,0,0,107.26,186.57Zm5.78-2.9c-.06-.55-.12-1.16-.21-1.83a10.93,10.93,0,0,0-.36-1.81,4.32,4.32,0,0,0-.6-1.31.86.86,0,0,0-.93-.39,1,1,0,0,0-.89,1,3.13,3.13,0,0,0,.32,1.68A5.28,5.28,0,0,0,113,183.67Z"/><path class="cls-1" d="M124.9,188.66a5.57,5.57,0,0,0,3-1.24,12.29,12.29,0,0,0,2.33-2.54,20.72,20.72,0,0,0,1.73-3c.47-1,.87-1.88,1.19-2.59.1-.27.24-.39.41-.36s.3.17.39.44a2.88,2.88,0,0,1,.07,1.11,5.77,5.77,0,0,1-.48,1.7c-.1.22-.35.77-.73,1.66a13.81,13.81,0,0,1-1.68,2.8,12.38,12.38,0,0,1-2.8,2.68,7.16,7.16,0,0,1-4,1.3,6.48,6.48,0,0,1-4.48-1.2,8.83,8.83,0,0,1-2.62-3.51A19.39,19.39,0,0,1,116,181c-.25-1.8-.46-3.57-.62-5.29a22.76,22.76,0,0,1,0-3.53c.09-1.35.24-2.72.47-4.12a34.47,34.47,0,0,1,1-4.14,22.89,22.89,0,0,1,1.41-3.66,9.24,9.24,0,0,1,1.82-2.62,3.33,3.33,0,0,1,2.22-1,3.58,3.58,0,0,1,2,.45,3.34,3.34,0,0,1,1.33,1.66,11,11,0,0,1,.7,3.05,43.26,43.26,0,0,1,.22,4.69,25,25,0,0,1-.73,5.77,47.55,47.55,0,0,1-1.77,5.89q-1,2.81-2.1,5a23.86,23.86,0,0,1-1.74,3.19A5.29,5.29,0,0,0,124.9,188.66ZM124,168.12c0-.42,0-1.15.11-2.17a26.55,26.55,0,0,0,0-3.09,10.59,10.59,0,0,0-.48-2.73c-.27-.78-.7-1.16-1.29-1.15s-1.2.48-1.81,1.41a14.54,14.54,0,0,0-1.62,3.72,41.51,41.51,0,0,0-1.68,11.58,23.61,23.61,0,0,0,.38,5,15.79,15.79,0,0,0,1.22,3.86,34,34,0,0,0,1.64-3.21,34.73,34.73,0,0,0,1.51-3.93q.69-2.13,1.23-4.47a29.39,29.39,0,0,0,.69-4.84Z"/><path class="cls-1" d="M145.75,180.91c-.11.22-.35.76-.74,1.62a17.9,17.9,0,0,1-1.55,2.76,13.7,13.7,0,0,1-2.33,2.67,5.22,5.22,0,0,1-3,1.37,4.33,4.33,0,0,1-3-.64,6.35,6.35,0,0,1-1.84-2,7.33,7.33,0,0,1-.92-2.27,8.06,8.06,0,0,1-.21-1.57c0-.26,0-.63.06-1.12s0-1,.08-1.44.07-1.13.1-1.73a1.17,1.17,0,0,1,.5-.68,1.58,1.58,0,0,1,.78-.24,1.49,1.49,0,0,1,.75.19.78.78,0,0,1,.38.63s0,.31-.09.81-.1,1.08-.12,1.76a18.54,18.54,0,0,0,.08,2.19,8,8,0,0,0,.45,2.09,3.23,3.23,0,0,0,1.1,1.49,2.52,2.52,0,0,0,1.94.38A4.29,4.29,0,0,0,140.5,186a13.71,13.71,0,0,0,2-2.45,20.38,20.38,0,0,0,1.6-2.89c.46-1,.85-1.85,1.16-2.56.1-.3.24-.45.41-.45s.3.14.39.41a3.23,3.23,0,0,1,.07,1.14A6.76,6.76,0,0,1,145.75,180.91Zm-12.67-9.44a1.24,1.24,0,0,1,1.29.8,5.9,5.9,0,0,1,.32,1.4,1.46,1.46,0,0,1-.65,1.15,1.58,1.58,0,0,1-1.17.42,1.39,1.39,0,0,1-1.18-.65,2.94,2.94,0,0,1-.32-1.05,3.73,3.73,0,0,1,.39-1.28,1.42,1.42,0,0,1,1.38-.86Z"/><path class="cls-1" d="M158,180c-.1.22-.31.71-.62,1.46a11.2,11.2,0,0,1-1.37,2.35,10.26,10.26,0,0,1-2.28,2.22,5.67,5.67,0,0,1-3.27,1.05,4,4,0,0,1-2.88-.81,6.11,6.11,0,0,1-1.71-2.29,12.37,12.37,0,0,1-.88-2.94,20,20,0,0,1-.33-2.77,16.28,16.28,0,0,1,0-2.14c0-.91.09-1.94.16-3.07s.13-2.29.21-3.49.15-2.32.22-3.39l-9.78.92a2.93,2.93,0,0,1-1,0,3.36,3.36,0,0,1-.63-.26.56.56,0,0,1-.33-.47.67.67,0,0,1,.29-.7,2.81,2.81,0,0,1,.77-.3,3.83,3.83,0,0,1,1.14,0l9.65-1c0-.77.1-1.39.14-1.86a2.76,2.76,0,0,1,.12-.78,3.14,3.14,0,0,1,.26-1.23c.15-.27.48-.34,1-.22.3.06.56.33.78.82a2.94,2.94,0,0,1,.3,1.18v1.91l10-1a2.37,2.37,0,0,1,.76-.08,1.6,1.6,0,0,1,.56.18.64.64,0,0,1,.27.51.85.85,0,0,1-.32.67,4.21,4.21,0,0,1-.66.38,4,4,0,0,1-1,.22l-9.72.91q0,.84-.09,1.8c0,.64,0,1.33-.06,2,0,.3-.06.85-.13,1.64s-.15,1.65-.24,2.55-.16,1.78-.23,2.64-.1,1.5-.1,1.92a11,11,0,0,0,.2,1.81,13.3,13.3,0,0,0,.59,2.18,5.82,5.82,0,0,0,1.07,1.87,2,2,0,0,0,1.63.78,4.21,4.21,0,0,0,2.59-.89,8.48,8.48,0,0,0,2-2.12,17.16,17.16,0,0,0,1.44-2.62l1.08-2.42c.1-.27.24-.39.41-.36s.3.16.39.41a2.77,2.77,0,0,1,.07,1.11A6.69,6.69,0,0,1,158,180Z"/><path class="cls-1" d="M176.81,178.11a20,20,0,0,1-.93,1.93,22.08,22.08,0,0,1-1.64,2.58,14.11,14.11,0,0,1-2.17,2.33,4.49,4.49,0,0,1-2.53,1.16,3.39,3.39,0,0,1-2.33-.35,6.51,6.51,0,0,1-1.44-1.2,4.58,4.58,0,0,1-.94-1.82,19.34,19.34,0,0,1-1.19,2.21,11.26,11.26,0,0,1-1.32,1.56,2.34,2.34,0,0,1-1.58.75,3.51,3.51,0,0,1-1.16-.14,3.17,3.17,0,0,1-1.42-.89,5.23,5.23,0,0,1-1.18-2,9.49,9.49,0,0,1-.37-3.6,11.21,11.21,0,0,1,.71-4,10.65,10.65,0,0,1,1.57-2.85,7,7,0,0,1,1.91-1.71,4.57,4.57,0,0,1,1.76-.64,3.83,3.83,0,0,1,2.13.37,2.88,2.88,0,0,1,1.09,1,2.55,2.55,0,0,1,.36,1.18c0,.38,0,.61,0,.7a2.56,2.56,0,0,1-.33.92,1,1,0,0,1-.38.35.46.46,0,0,1-.38,0l-.4-.13a2.86,2.86,0,0,0-.18-1.31,2.13,2.13,0,0,0-.6-.87,1.74,1.74,0,0,0-1.24-.36,2.36,2.36,0,0,0-1.31.57,4.72,4.72,0,0,0-1.12,1.34,10,10,0,0,0-.84,1.9,12,12,0,0,0-.5,2.15,12.19,12.19,0,0,0-.11,2.17,7.72,7.72,0,0,0,.27,1.88,3.28,3.28,0,0,0,.66,1.28,1.19,1.19,0,0,0,1,.42,2.2,2.2,0,0,0,1.57-1.17,10.85,10.85,0,0,0,1.17-2.47,18.85,18.85,0,0,0,.73-2.74c.17-.91.28-1.55.33-1.94,0-.17.16-.28.41-.33a2.6,2.6,0,0,1,.83,0,2.24,2.24,0,0,1,.83.34.69.69,0,0,1,.35.63,13.54,13.54,0,0,0-.35,3.44,5,5,0,0,0,.69,2.29,2.1,2.1,0,0,0,2.18.85,5.27,5.27,0,0,0,3.15-2.05,26.34,26.34,0,0,0,3.79-6.76c.25-.53.5-.51.77.06s.14,1.51-.37,2.84Z"/><path class="cls-1" d="M109.41,125.87A62.94,62.94,0,0,1,109.41,0a2.41,2.41,0,0,1,0,4.81,58.13,58.13,0,0,0,0,116.25,2.41,2.41,0,0,1,0,4.81Z"/><path class="cls-1" d="M125.07,123.46a2.4,2.4,0,0,1-.6-4.73,58.13,58.13,0,0,0,41.68-70.85,2.41,2.41,0,0,1,4.66-1.21,62.93,62.93,0,0,1-45.13,76.71A2.18,2.18,0,0,1,125.07,123.46Z"/><path class="cls-1" d="M163.82,39.53a2.41,2.41,0,0,1-2.35-1.36,58.5,58.5,0,0,0-9-13.66,2.41,2.41,0,1,1,3.6-3.19,63.12,63.12,0,0,1,9.78,14.78,2.4,2.4,0,0,1-1.14,3.2A2.16,2.16,0,0,1,163.82,39.53Z"/><path class="cls-1" d="M135,10.25a2.35,2.35,0,0,1-1-.21,58.88,58.88,0,0,0-9-3.12,2.41,2.41,0,0,1,1.21-4.66,63.38,63.38,0,0,1,9.71,3.38,2.41,2.41,0,0,1-1,4.61Z"/><path class="cls-1" d="M72.87,92.73c2.7,2.25,5.23,3.2,8.33,2.32,2.14-.61,4.28-.33,4.78,2.18s-1.34,3.31-3.54,3.81a15.44,15.44,0,0,1-16-6.29c-1.49-2.27-1.44-4.47,1-5.65,6.44-3.07,6.7-7.28,4.67-13.76-3.4-10.89-2.8-22.26.46-33.21,4.41-14.81,15.5-22,29.93-25.22,13.2-3,34.08,4.67,40.66,16.88A50.05,50.05,0,0,1,149,61.11c-.48,7.57-2,15.07-3.13,23.35,1.37,1,3.62,2.82,6,4.48s2.65,3.59,1,6c-3.8,5.38-10.81,8-16.72,5.87a4.7,4.7,0,0,1-2.59-3.48c0-2.1,1.89-2.94,3.9-2.36,3.28,1,6.11.31,9-2.14-2.17-1.63-4.21-3.23-6.31-4.74s-2.69-3-1.61-5.67c6-14.59,6.34-29.37.28-44-2.44-5.88-7.3-9.87-13-12.37-10.79-4.72-21.7-5-32.46.32-10.31,5.13-15,13.93-16.48,25a60.65,60.65,0,0,0,4.13,32c.44,1-.35,3.21-1.28,4.15C77.79,89.37,75.38,90.84,72.87,92.73Z"/><path class="cls-1" d="M136.57,65.41c0,8.65-2.5,16.48-8.24,23-12.37,14.07-32.4,11.14-41.4-6a35.76,35.76,0,0,1-4.14-16.29c-.05-2.7,1-4.16,3.68-4.63,14.35-2.6,27.85-7.2,39.32-16.64,2.06-1.68,4.36-1,5.8,1.52A37.48,37.48,0,0,1,136.57,65.41Zm-47.64,2c.71,7,2.91,12.93,7.5,17.81,6.47,6.86,16,7.87,23.53,2.55C130.14,80.55,133.8,63,127.2,51.66,115.79,59.88,103,64.81,88.93,67.41Z"/><path class="cls-1" d="M74.12,125.71,73.26,127l2.48,1.61-.82,1.27-2.49-1.6-1.61,2.49-1.53-1,4.15-6.42,4.23,2.73-.86,1.33Z"/><path class="cls-1" d="M83.37,135.67a2.61,2.61,0,0,1-1,.6,3,3,0,0,1-1.21.14,4.14,4.14,0,0,1-2.46-1.14,2.75,2.75,0,0,1-.85-2.16,3.4,3.4,0,0,1,.32-1.23l2-4.33,1.66.77-1.93,4.19a2.09,2.09,0,0,0-.18.57,1.74,1.74,0,0,0,0,.56,1.22,1.22,0,0,0,.25.51,1.8,1.8,0,0,0,.55.39,1.45,1.45,0,0,0,.66.16,1.12,1.12,0,0,0,.55-.13,1.24,1.24,0,0,0,.44-.35,2.6,2.6,0,0,0,.32-.51l1.93-4.18,1.68.77-2,4.32A3.25,3.25,0,0,1,83.37,135.67Z"/><path class="cls-1" d="M91.73,140.09l-1.62-5.64h0l-1.31,4.82-1.72-.48,2-7.36,2,.57,1.61,5.62h0l1.3-4.81,1.73.48-2.06,7.36Z"/><path class="cls-1" d="M105.69,138.45a3.76,3.76,0,0,1-.56,1.69,3.65,3.65,0,0,1-1.1,1.08,4,4,0,0,1-1.45.54,5.9,5.9,0,0,1-1.57.05l-2.83-.31.83-7.6,2.75.3a7,7,0,0,1,1.57.36,3.88,3.88,0,0,1,1.32.78,3.08,3.08,0,0,1,.86,1.27A3.86,3.86,0,0,1,105.69,138.45Zm-1.91-.21a2.36,2.36,0,0,0-.09-1.09,1.78,1.78,0,0,0-.49-.73,2,2,0,0,0-.75-.45,4.47,4.47,0,0,0-.91-.21l-.91-.1-.49,4.45.87.09a3.93,3.93,0,0,0,1,0,2.14,2.14,0,0,0,.84-.28,1.81,1.81,0,0,0,.63-.63A2.32,2.32,0,0,0,103.78,138.24Z"/><path class="cls-1" d="M114.29,142.14l-.66-1.48-3,.13-.49,1.52-2,.08,2.88-7.77,1.79-.07,3.5,7.5ZM112,136.63l-.86,2.66,1.92-.08Z"/><path class="cls-1" d="M125,140.43a4.38,4.38,0,0,1-1.62.66,4.64,4.64,0,0,1-1.66,0,4,4,0,0,1-1.44-.57,4,4,0,0,1-1.09-1.09,4.32,4.32,0,0,1-.61-1.56,4,4,0,0,1,0-1.69,3.6,3.6,0,0,1,.62-1.41,4.1,4.1,0,0,1,1.15-1,4.52,4.52,0,0,1,1.54-.58,4.63,4.63,0,0,1,1.62,0,3.08,3.08,0,0,1,1.41.58l-1,1.47a1.53,1.53,0,0,0-.77-.39,2.17,2.17,0,0,0-.88,0,2.25,2.25,0,0,0-.84.34,2.05,2.05,0,0,0-.59.62,2.4,2.4,0,0,0-.31.81,2.78,2.78,0,0,0,0,1,2.55,2.55,0,0,0,.34.9,2.23,2.23,0,0,0,.58.64,1.87,1.87,0,0,0,.76.34,2,2,0,0,0,.89,0A2.15,2.15,0,0,0,124,139a1.94,1.94,0,0,0,.54-.68l1.49.95A3.7,3.7,0,0,1,125,140.43Z"/><path class="cls-1" d="M129.57,139.3,127.26,132l1.77-.56,2.31,7.28Z"/><path class="cls-1" d="M141.05,130.47a4.1,4.1,0,0,1,.42,1.63,3.73,3.73,0,0,1-1.09,2.84,4.86,4.86,0,0,1-3,1.41,4,4,0,0,1-1.54-.19,3.73,3.73,0,0,1-1.33-.8,4.28,4.28,0,0,1-1-1.37,4.19,4.19,0,0,1-.42-1.63,3.62,3.62,0,0,1,.26-1.51,3.82,3.82,0,0,1,.85-1.28,5.08,5.08,0,0,1,3-1.41,4,4,0,0,1,1.54.17,3.55,3.55,0,0,1,1.32.77A4.29,4.29,0,0,1,141.05,130.47Zm-5.3-2.37-1.22.56.36-1.88,1.63-.76Zm3.51,3.2a2.67,2.67,0,0,0-.54-.77,2.39,2.39,0,0,0-.72-.48,2.27,2.27,0,0,0-.83-.15,2.2,2.2,0,0,0-.88.22,2.24,2.24,0,0,0-.73.54,2.14,2.14,0,0,0-.42.73,2,2,0,0,0-.09.86,2.82,2.82,0,0,0,.25.91,2.86,2.86,0,0,0,.55.79,2.4,2.4,0,0,0,.73.49,2.12,2.12,0,0,0,.83.16,2.15,2.15,0,0,0,.87-.22,2,2,0,0,0,.73-.53,2.18,2.18,0,0,0,.42-.74,2.09,2.09,0,0,0,.09-.87A2.61,2.61,0,0,0,139.26,131.3Z"/><path class="cls-1" d="M150.31,129l-5.38-2.35h0l2.89,4.09-1.47,1L142,125.52l1.73-1.2,5.36,2.35,0,0-2.88-4.07,1.47-1,4.36,6.28Z"/></g></g></svg>