<svg xmlns="http://www.w3.org/2000/svg" viewBox="0 0 81.97 92.36"><defs><style>.cls-1{fill:#2b388f;}</style></defs><g id="Capa_2" data-name="Capa 2"><g id="Capa_1-2" data-name="Capa 1"><path class="cls-1" d="M40.82,81.64A40.82,40.82,0,0,1,40.82,0a1.56,1.56,0,1,1,0,3.12,37.7,37.7,0,0,0,0,75.4,1.56,1.56,0,1,1,0,3.12Z"/><path class="cls-1" d="M51,80.08A1.56,1.56,0,0,1,50.59,77a37.7,37.7,0,0,0,27-45.95,1.56,1.56,0,0,1,3-.79A40.83,40.83,0,0,1,51.37,80,1.31,1.31,0,0,1,51,80.08Z"/><path class="cls-1" d="M76.11,25.64a1.56,1.56,0,0,1-1.52-.88,37.49,37.49,0,0,0-5.87-8.86,1.56,1.56,0,0,1,2.34-2.07,41.29,41.29,0,0,1,6.35,9.59,1.55,1.55,0,0,1-.74,2.07A1.42,1.42,0,0,1,76.11,25.64Z"/><path class="cls-1" d="M57.39,6.65a1.56,1.56,0,0,1-.63-.14,37.89,37.89,0,0,0-5.83-2,1.56,1.56,0,0,1,.79-3A41.2,41.2,0,0,1,58,3.66a1.56,1.56,0,0,1-.63,3Z"/><path class="cls-1" d="M17.12,60.15c1.75,1.46,3.39,2.08,5.4,1.5,1.39-.4,2.78-.21,3.11,1.42s-.88,2.14-2.3,2.47a10,10,0,0,1-10.4-4.08c-1-1.47-.93-2.9.68-3.67,4.17-2,4.34-4.72,3-8.92a36.7,36.7,0,0,1,.3-21.54C19.79,17.72,27,13.09,36.35,11c8.56-2,22.1,3,26.37,11a32.36,32.36,0,0,1,3.79,17.72c-.31,4.91-1.28,9.77-2,15.14.88.67,2.34,1.83,3.86,2.91S70.07,60,69,61.55c-2.46,3.49-7,5.21-10.84,3.81a3.07,3.07,0,0,1-1.69-2.26c0-1.36,1.23-1.91,2.54-1.53a5.94,5.94,0,0,0,5.87-1.39c-1.41-1.06-2.73-2.09-4.1-3.08a2.65,2.65,0,0,1-1-3.67c3.88-9.47,4.11-19,.18-28.54a15.37,15.37,0,0,0-8.45-8c-7-3-14.08-3.26-21,.21-6.7,3.33-9.76,9-10.7,16.2A39.47,39.47,0,0,0,22.39,54a3.15,3.15,0,0,1-.83,2.69A39.8,39.8,0,0,1,17.12,60.15Z"/><path class="cls-1" d="M58.44,42.43A21.91,21.91,0,0,1,53.1,57.34c-8,9.12-21,7.22-26.86-3.87a23.21,23.21,0,0,1-2.69-10.56,2.61,2.61,0,0,1,2.39-3C35.25,38.22,44,35.23,51.45,29.11c1.33-1.09,2.83-.67,3.76,1A24.39,24.39,0,0,1,58.44,42.43Zm-30.9,1.29A18.85,18.85,0,0,0,32.4,55.27a11.4,11.4,0,0,0,15.27,1.66c6.6-4.68,9-16.09,4.69-23.42A60.39,60.39,0,0,1,27.54,43.72Z"/><path class="cls-1" d="M17.93,81.54l-.56.86,1.61,1-.53.83-1.61-1-1.05,1.62-1-.65L17.49,80l2.74,1.78-.55.85Z"/><path class="cls-1" d="M23.93,88a1.74,1.74,0,0,1-.65.39,2.07,2.07,0,0,1-.79.09,2.63,2.63,0,0,1-.86-.23,2.7,2.7,0,0,1-.74-.51,1.94,1.94,0,0,1-.43-.65,1.85,1.85,0,0,1-.12-.75,2.44,2.44,0,0,1,.21-.8l1.3-2.8,1.08.5L21.67,86a1.73,1.73,0,0,0-.11.37.92.92,0,0,0,0,.37.77.77,0,0,0,.17.32,1,1,0,0,0,.35.26.9.9,0,0,0,.43.1.86.86,0,0,0,.36-.08,1,1,0,0,0,.28-.23,1.85,1.85,0,0,0,.21-.33L24.62,84l1.09.5-1.3,2.8A2,2,0,0,1,23.93,88Z"/><path class="cls-1" d="M29.35,90.87,28.3,87.21h0l-.84,3.13L26.32,90l1.33-4.78,1.31.37L30,89.26h0l.84-3.13,1.12.32-1.33,4.77Z"/><path class="cls-1" d="M38.41,89.81a2.55,2.55,0,0,1-.36,1.09,2.4,2.4,0,0,1-.72.7,2.8,2.8,0,0,1-.94.35,3.49,3.49,0,0,1-1,0l-1.83-.2.54-4.93,1.78.2a4.44,4.44,0,0,1,1,.23,2.82,2.82,0,0,1,.86.5,2.08,2.08,0,0,1,.55.83A2.53,2.53,0,0,1,38.41,89.81Zm-1.24-.14a1.6,1.6,0,0,0-.06-.71,1.11,1.11,0,0,0-.31-.47,1.36,1.36,0,0,0-.49-.29,2.41,2.41,0,0,0-.59-.14L35.13,88l-.32,2.88.57.06a2.56,2.56,0,0,0,.62,0,1.28,1.28,0,0,0,.55-.18,1.15,1.15,0,0,0,.41-.41A1.56,1.56,0,0,0,37.17,89.67Z"/><path class="cls-1" d="M44,92.2l-.42-1-1.92.08-.32,1-1.3,0,1.87-5,1.16,0,2.26,4.87ZM42.5,88.62l-.56,1.73,1.25-.06Z"/><path class="cls-1" d="M50.91,91.09a2.76,2.76,0,0,1-1,.42,2.82,2.82,0,0,1-1.08,0,2.71,2.71,0,0,1-.93-.37,2.53,2.53,0,0,1-.71-.71,2.92,2.92,0,0,1-.4-2.11,2.43,2.43,0,0,1,.41-.91,2.39,2.39,0,0,1,.74-.67,3,3,0,0,1,1-.38,2.85,2.85,0,0,1,1,0,1.91,1.91,0,0,1,.91.37l-.64,1a1,1,0,0,0-.5-.26,1.37,1.37,0,0,0-.57,0,1.41,1.41,0,0,0-.55.22,1.45,1.45,0,0,0-.38.4,1.31,1.31,0,0,0-.2.52,1.85,1.85,0,0,0,0,.62,1.75,1.75,0,0,0,.22.58,1.4,1.4,0,0,0,.38.42,1.21,1.21,0,0,0,.49.22,1.61,1.61,0,0,0,.58,0,1.38,1.38,0,0,0,.59-.26,1.24,1.24,0,0,0,.35-.44l1,.62A2.27,2.27,0,0,1,50.91,91.09Z"/><path class="cls-1" d="M53.9,90.36l-1.5-4.73,1.15-.36L55.05,90Z"/><path class="cls-1" d="M61.35,84.62a3,3,0,0,1,.27,1.06,2.45,2.45,0,0,1-.71,1.85,3.29,3.29,0,0,1-.9.63,3.16,3.16,0,0,1-1,.28,2.55,2.55,0,0,1-1-.12,2.39,2.39,0,0,1-.86-.52,2.54,2.54,0,0,1-.64-.89,2.84,2.84,0,0,1-.28-1.06,2.42,2.42,0,0,1,.17-1A2.55,2.55,0,0,1,56.9,84a3.27,3.27,0,0,1,.9-.62,3.18,3.18,0,0,1,1.05-.29,2.53,2.53,0,0,1,1,.11,2.42,2.42,0,0,1,.86.5A2.94,2.94,0,0,1,61.35,84.62Zm-3.44-1.53-.79.37.23-1.23,1-.49Zm2.27,2.08a1.64,1.64,0,0,0-.34-.5,1.37,1.37,0,0,0-.47-.31,1.4,1.4,0,0,0-.54-.1,1.33,1.33,0,0,0-.57.14,1.41,1.41,0,0,0-.47.35,1.34,1.34,0,0,0-.28.47,1.49,1.49,0,0,0-.06.56,1.81,1.81,0,0,0,.17.59,1.76,1.76,0,0,0,.35.52,1.53,1.53,0,0,0,.47.31,1.11,1.11,0,0,0,.54.1,1.47,1.47,0,0,0,.57-.13,1.41,1.41,0,0,0,.47-.35,1.21,1.21,0,0,0,.27-.48,1.36,1.36,0,0,0,.06-.57A1.51,1.51,0,0,0,60.18,85.17Z"/><path class="cls-1" d="M67.35,83.69l-3.49-1.52h0l1.88,2.65-1,.66-2.83-4.07,1.12-.78,3.48,1.52h0l-1.87-2.64,1-.67,2.83,4.08Z"/></g></g></svg>